<svg width="788.0" height="1047.959200876839" viewBox="0 0 788.0 1047.959200876839" class="keymap" xmlns="http://www.w3.org/2000/svg" xmlns:xlink="http://www.w3.org/1999/xlink">
<style>/* inherit to force styles through use tags*/
svg path {
    fill: inherit;
}
/* font and background color specifications */
svg.keymap {
    font-family: SFMono-Regular,Consolas,Liberation Mono,Menlo,monospace;
    font-size: 14px;
    font-kerning: normal;
    text-rendering: optimizeLegibility;
    fill: #24292e;
}

/* default key styling */
rect.key {
    fill: #f6f8fa;
    stroke: #c9cccf;
    stroke-width: 1;
}

/* color accent for combo boxes */
rect.combo {
    fill: #cdf;
}

/* color accent for held keys */
rect.held, rect.combo.held {
    fill: #fdd;
}

/* color accent for ghost (optional) keys */
rect.ghost, rect.combo.ghost {
    stroke-dasharray: 4, 4;
    stroke-width: 2;
}

text {
    text-anchor: middle;
    dominant-baseline: middle;
}

/* styling for layer labels */
text.label {
    font-weight: bold;
    text-anchor: start;
    stroke: white;
    stroke-width: 2;
    paint-order: stroke;
}

/* styling for combo tap, and key hold/shifted label text */
text.combo, text.hold, text.shifted {
    font-size: 11px;
}

text.hold {
    text-anchor: middle;
    dominant-baseline: auto;
}

text.shifted {
    text-anchor: middle;
    dominant-baseline: hanging;
}

/* styling for hold/shifted label text in combo box */
text.combo.hold, text.combo.shifted {
    font-size: 8px;
}

/* lighter symbol for transparent keys */
text.trans {
    fill: #7b7e81;
}

/* styling for combo dendrons */
path.combo {
    stroke-width: 1;
    stroke: gray;
    fill: none;
}

/* Start Tabler Icons Cleanup */
/* cannot use height/width with glyphs */
.icon-tabler > path {
    fill: inherit;
    stroke: inherit;
}
/* hide tabler's default box */
.icon-tabler > path[stroke="none"][fill="none"] {
    visibility: collapse;
}
/* End Tabler Icons Cleanup */
</style>
<g class="layer-base">
<text x="30.0" y="28.0" class="label">base:</text>
<rect rx="6.0" ry="6.0" x="32.0" y="79.0" width="52.0" height="52.0" class="key"/>
<text x="58.0" y="105.0" class="tap">q</text>
<rect rx="6.0" ry="6.0" x="88.0" y="65.0" width="52.0" height="52.0" class="key"/>
<text x="114.0" y="91.0" class="tap">w</text>
<rect rx="6.0" ry="6.0" x="144.0" y="58.0" width="52.0" height="52.0" class="key"/>
<text x="170.0" y="84.0" class="tap">e</text>
<rect rx="6.0" ry="6.0" x="200.0" y="65.0" width="52.0" height="52.0" class="key"/>
<text x="226.0" y="91.0" class="tap">r</text>
<rect rx="6.0" ry="6.0" x="256.0" y="72.0" width="52.0" height="52.0" class="key"/>
<text x="282.0" y="98.0" class="tap">t</text>
<rect rx="6.0" ry="6.0" x="480.0" y="72.0" width="52.0" height="52.0" class="key"/>
<text x="506.0" y="98.0" class="tap">y</text>
<rect rx="6.0" ry="6.0" x="536.0" y="65.0" width="52.0" height="52.0" class="key"/>
<text x="562.0" y="91.0" class="tap">u</text>
<rect rx="6.0" ry="6.0" x="592.0" y="58.0" width="52.0" height="52.0" class="key"/>
<text x="618.0" y="84.0" class="tap">i</text>
<rect rx="6.0" ry="6.0" x="648.0" y="65.0" width="52.0" height="52.0" class="key"/>
<text x="674.0" y="91.0" class="tap">o</text>
<rect rx="6.0" ry="6.0" x="704.0" y="79.0" width="52.0" height="52.0" class="key"/>
<text x="730.0" y="105.0" class="tap">p</text>
<rect rx="6.0" ry="6.0" x="32.0" y="135.0" width="52.0" height="52.0" class="key"/>
<text x="58.0" y="161.0" class="tap">a</text>
<text x="58.0" y="185.0" class="hold">LShift</text>
<rect rx="6.0" ry="6.0" x="88.0" y="121.0" width="52.0" height="52.0" class="key"/>
<text x="114.0" y="147.0" class="tap">s</text>
<rect rx="6.0" ry="6.0" x="144.0" y="114.0" width="52.0" height="52.0" class="key"/>
<text x="170.0" y="140.0" class="tap">d</text>
<rect rx="6.0" ry="6.0" x="200.0" y="121.0" width="52.0" height="52.0" class="key"/>
<text x="226.0" y="147.0" class="tap">f</text>
<rect rx="6.0" ry="6.0" x="256.0" y="128.0" width="52.0" height="52.0" class="key"/>
<text x="282.0" y="154.0" class="tap">g</text>
<rect rx="6.0" ry="6.0" x="480.0" y="128.0" width="52.0" height="52.0" class="key"/>
<text x="506.0" y="154.0" class="tap">h</text>
<rect rx="6.0" ry="6.0" x="536.0" y="121.0" width="52.0" height="52.0" class="key"/>
<text x="562.0" y="147.0" class="tap">j</text>
<rect rx="6.0" ry="6.0" x="592.0" y="114.0" width="52.0" height="52.0" class="key"/>
<text x="618.0" y="140.0" class="tap">k</text>
<rect rx="6.0" ry="6.0" x="648.0" y="121.0" width="52.0" height="52.0" class="key"/>
<text x="674.0" y="147.0" class="tap">l</text>
<rect rx="6.0" ry="6.0" x="704.0" y="135.0" width="52.0" height="52.0" class="key"/>
<text x="730.0" y="161.0" class="tap">;</text>
<text x="730.0" y="185.0" class="hold">RShift</text>
<rect rx="6.0" ry="6.0" x="32.0" y="191.0" width="52.0" height="52.0" class="key"/>
<text x="58.0" y="217.0" class="tap">z</text>
<text x="58.0" y="241.0" class="hold">LCtrl</text>
<rect rx="6.0" ry="6.0" x="88.0" y="177.0" width="52.0" height="52.0" class="key"/>
<text x="114.0" y="203.0" class="tap">x</text>
<rect rx="6.0" ry="6.0" x="144.0" y="170.0" width="52.0" height="52.0" class="key"/>
<text x="170.0" y="196.0" class="tap">c</text>
<rect rx="6.0" ry="6.0" x="200.0" y="177.0" width="52.0" height="52.0" class="key"/>
<text x="226.0" y="203.0" class="tap">v</text>
<rect rx="6.0" ry="6.0" x="256.0" y="184.0" width="52.0" height="52.0" class="key"/>
<text x="282.0" y="210.0" class="tap">b</text>
<rect rx="6.0" ry="6.0" x="480.0" y="184.0" width="52.0" height="52.0" class="key"/>
<text x="506.0" y="210.0" class="tap">n</text>
<rect rx="6.0" ry="6.0" x="536.0" y="177.0" width="52.0" height="52.0" class="key"/>
<text x="562.0" y="203.0" class="tap">m</text>
<rect rx="6.0" ry="6.0" x="592.0" y="170.0" width="52.0" height="52.0" class="key"/>
<text x="618.0" y="196.0" class="tap">,</text>
<rect rx="6.0" ry="6.0" x="648.0" y="177.0" width="52.0" height="52.0" class="key"/>
<text x="674.0" y="203.0" class="tap">.</text>
<rect rx="6.0" ry="6.0" x="704.0" y="191.0" width="52.0" height="52.0" class="key"/>
<text x="730.0" y="217.0" class="tap">/</text>
<text x="730.0" y="241.0" class="hold">RCtrl</text>
<rect rx="6.0" ry="6.0" x="172.0" y="234.84799999999996" width="52.0" height="52.0" class="key"/>
<text x="198.0" y="260.84799999999996" class="tap">LAlt</text>
<g transform="rotate(15.0, 259.59999999999997, 269.08000000000004)">
<rect rx="6.0" ry="6.0" x="233.59999999999997" y="243.08000000000004" width="52.0" height="52.0" class="key"/>
<text x="259.59999999999997" y="269.08000000000004" class="tap">Tab</text>
<text x="259.59999999999997" y="293.08000000000004" class="hold">LGui</text>
</g>
<g transform="rotate(30.0, 325.12, 280.28)">
<rect rx="6.0" ry="6.0" x="299.12" y="240.27999999999997" width="52.0" height="80.0" class="key"/>
<text x="325.12" y="280.28" class="tap">Space</text>
<text x="325.12" y="318.28" class="hold">sym</text>
</g>
<g transform="rotate(-30.0, 462.88, 280.28)">
<rect rx="6.0" ry="6.0" x="436.88" y="240.27999999999997" width="52.0" height="80.0" class="key"/>
<text x="462.88" y="280.28" class="tap">Space</text>
<text x="462.88" y="318.28" class="hold">num</text>
</g>
<g transform="rotate(-15.0, 528.4000000000001, 269.08000000000004)">
<rect rx="6.0" ry="6.0" x="502.4000000000001" y="243.08000000000004" width="52.0" height="52.0" class="key"/>
<text x="528.4000000000001" y="269.08000000000004" class="tap">Enter</text>
<text x="528.4000000000001" y="293.08000000000004" class="hold">Scroll</text>
</g>
<rect rx="6.0" ry="6.0" x="564.0" y="234.84799999999996" width="52.0" height="52.0" class="key"/>
<text x="590.0" y="260.84799999999996" class="tap">RAlt</text>
<rect rx="6.0" ry="6.0" x="72.0" y="85.0" width="28.0" height="26.0" class="combo"/>
<text x="86.0" y="98.0" class="combo tap">Escape</text>
<rect rx="6.0" ry="6.0" x="520.0" y="81.5" width="28.0" height="26.0" class="combo"/>
<text x="534.0" y="94.5" class="combo tap">BSpace</text>
<rect rx="6.0" ry="6.0" x="576.0" y="74.5" width="28.0" height="26.0" class="combo"/>
<text x="590.0" y="87.5" class="combo tap">Delete</text>
<rect rx="6.0" ry="6.0" x="632.0" y="74.5" width="28.0" height="26.0" class="combo"/>
<text x="646.0" y="87.5" class="combo tap">/</text>
<rect rx="6.0" ry="6.0" x="688.0" y="85.0" width="28.0" height="26.0" class="combo"/>
<text x="702.0" y="98.0" class="combo tap">\</text>
<rect rx="6.0" ry="6.0" x="520.0" y="137.5" width="28.0" height="26.0" class="combo"/>
<text x="534.0" y="150.5" class="combo tap">&lt;</text>
<rect rx="6.0" ry="6.0" x="576.0" y="130.5" width="28.0" height="26.0" class="combo"/>
<text x="590.0" y="143.5" class="combo tap">:</text>
<rect rx="6.0" ry="6.0" x="632.0" y="130.5" width="28.0" height="26.0" class="combo"/>
<text x="646.0" y="143.5" class="combo tap">&gt;</text>
<rect rx="6.0" ry="6.0" x="128.0" y="186.5" width="28.0" height="26.0" class="combo"/>
<text x="142.0" y="199.5" class="combo tap">M-x</text>
<rect rx="6.0" ry="6.0" x="184.0" y="186.5" width="28.0" height="26.0" class="combo"/>
<text x="198.0" y="199.5" class="combo tap">F6</text>
<rect rx="6.0" ry="6.0" x="520.0" y="193.5" width="28.0" height="26.0" class="combo"/>
<text x="534.0" y="206.5" class="combo tap">&quot;</text>
<rect rx="6.0" ry="6.0" x="576.0" y="186.5" width="28.0" height="26.0" class="combo"/>
<text x="590.0" y="199.5" class="combo tap">&#x27;</text>
<rect rx="6.0" ry="6.0" x="632.0" y="186.5" width="28.0" height="26.0" class="combo"/>
<text x="646.0" y="199.5" class="combo tap">_</text>
</g>
<g class="layer-sym">
<text x="30.0" y="358.6530669589464" class="label">sym:</text>
<rect rx="6.0" ry="6.0" x="32.0" y="409.6530669589464" width="52.0" height="52.0" class="key"/>
<text x="58.0" y="435.6530669589464" class="tap">!</text>
<rect rx="6.0" ry="6.0" x="88.0" y="395.6530669589464" width="52.0" height="52.0" class="key"/>
<text x="114.0" y="421.6530669589464" class="tap">@</text>
<rect rx="6.0" ry="6.0" x="144.0" y="388.6530669589464" width="52.0" height="52.0" class="key"/>
<text x="170.0" y="414.6530669589464" class="tap">{</text>
<rect rx="6.0" ry="6.0" x="200.0" y="395.6530669589464" width="52.0" height="52.0" class="key"/>
<text x="226.0" y="421.6530669589464" class="tap">}</text>
<rect rx="6.0" ry="6.0" x="256.0" y="402.6530669589464" width="52.0" height="52.0" class="key"/>
<text x="282.0" y="428.6530669589464" class="tap">|</text>
<rect rx="6.0" ry="6.0" x="480.0" y="402.6530669589464" width="52.0" height="52.0" class="key"/>
<text x="506.0" y="428.6530669589464" class="tap">`</text>
<rect rx="6.0" ry="6.0" x="536.0" y="395.6530669589464" width="52.0" height="52.0" class="key"/>
<text x="562.0" y="421.6530669589464" class="tap">~</text>
<rect rx="6.0" ry="6.0" x="592.0" y="388.6530669589464" width="52.0" height="52.0" class="key"/>
<text x="618.0" y="414.6530669589464" class="tap">\</text>
<rect rx="6.0" ry="6.0" x="648.0" y="395.6530669589464" width="52.0" height="52.0" class="key"/>
<rect rx="6.0" ry="6.0" x="704.0" y="409.6530669589464" width="52.0" height="52.0" class="key"/>
<text x="730.0" y="435.6530669589464" class="tap">&quot;</text>
<rect rx="6.0" ry="6.0" x="32.0" y="465.6530669589464" width="52.0" height="52.0" class="key"/>
<text x="58.0" y="491.6530669589464" class="tap">#</text>
<text x="58.0" y="515.6530669589464" class="hold">LShift</text>
<rect rx="6.0" ry="6.0" x="88.0" y="451.6530669589464" width="52.0" height="52.0" class="key"/>
<text x="114.0" y="477.6530669589464" class="tap">$</text>
<rect rx="6.0" ry="6.0" x="144.0" y="444.6530669589464" width="52.0" height="52.0" class="key"/>
<text x="170.0" y="470.6530669589464" class="tap">(</text>
<rect rx="6.0" ry="6.0" x="200.0" y="451.6530669589464" width="52.0" height="52.0" class="key"/>
<text x="226.0" y="477.6530669589464" class="tap">)</text>
<rect rx="6.0" ry="6.0" x="256.0" y="458.6530669589464" width="52.0" height="52.0" class="key"/>
<rect rx="6.0" ry="6.0" x="480.0" y="458.6530669589464" width="52.0" height="52.0" class="key"/>
<text x="506.0" y="484.6530669589464" class="tap">+</text>
<rect rx="6.0" ry="6.0" x="536.0" y="451.6530669589464" width="52.0" height="52.0" class="key"/>
<text x="562.0" y="477.6530669589464" class="tap">-</text>
<rect rx="6.0" ry="6.0" x="592.0" y="444.6530669589464" width="52.0" height="52.0" class="key"/>
<text x="618.0" y="470.6530669589464" class="tap">/</text>
<rect rx="6.0" ry="6.0" x="648.0" y="451.6530669589464" width="52.0" height="52.0" class="key"/>
<text x="674.0" y="477.6530669589464" class="tap">*</text>
<rect rx="6.0" ry="6.0" x="704.0" y="465.6530669589464" width="52.0" height="52.0" class="key"/>
<text x="730.0" y="491.6530669589464" class="tap">&#x27;</text>
<text x="730.0" y="515.6530669589464" class="hold">RShift</text>
<rect rx="6.0" ry="6.0" x="32.0" y="521.6530669589464" width="52.0" height="52.0" class="key"/>
<text x="58.0" y="547.6530669589464" class="tap">%</text>
<text x="58.0" y="571.6530669589464" class="hold">LCtrl</text>
<rect rx="6.0" ry="6.0" x="88.0" y="507.6530669589464" width="52.0" height="52.0" class="key"/>
<text x="114.0" y="533.6530669589464" class="tap">^</text>
<rect rx="6.0" ry="6.0" x="144.0" y="500.6530669589464" width="52.0" height="52.0" class="key"/>
<text x="170.0" y="526.6530669589464" class="tap">[</text>
<rect rx="6.0" ry="6.0" x="200.0" y="507.6530669589464" width="52.0" height="52.0" class="key"/>
<text x="226.0" y="533.6530669589464" class="tap">]</text>
<rect rx="6.0" ry="6.0" x="256.0" y="514.6530669589464" width="52.0" height="52.0" class="key"/>
<rect rx="6.0" ry="6.0" x="480.0" y="514.6530669589464" width="52.0" height="52.0" class="key"/>
<text x="506.0" y="540.6530669589464" class="tap">&amp;</text>
<rect rx="6.0" ry="6.0" x="536.0" y="507.6530669589464" width="52.0" height="52.0" class="key"/>
<text x="562.0" y="533.6530669589464" class="tap">=</text>
<rect rx="6.0" ry="6.0" x="592.0" y="500.6530669589464" width="52.0" height="52.0" class="key"/>
<text x="618.0" y="526.6530669589464" class="tap">,</text>
<rect rx="6.0" ry="6.0" x="648.0" y="507.6530669589464" width="52.0" height="52.0" class="key"/>
<text x="674.0" y="533.6530669589464" class="tap">.</text>
<rect rx="6.0" ry="6.0" x="704.0" y="521.6530669589464" width="52.0" height="52.0" class="key"/>
<text x="730.0" y="547.6530669589464" class="tap">_</text>
<text x="730.0" y="571.6530669589464" class="hold">RCtrl</text>
<rect rx="6.0" ry="6.0" x="172.0" y="565.5010669589464" width="52.0" height="52.0" class="key"/>
<g transform="rotate(15.0, 259.59999999999997, 599.7330669589464)">
<rect rx="6.0" ry="6.0" x="233.59999999999997" y="573.7330669589464" width="52.0" height="52.0" class="key"/>
<text x="259.59999999999997" y="599.7330669589464" class="tap">LAlt</text>
</g>
<g transform="rotate(30.0, 325.12, 610.9330669589464)">
<rect rx="6.0" ry="6.0" x="299.12" y="570.9330669589464" width="52.0" height="80.0" class="key"/>
<text x="325.12" y="610.9330669589464" class="tap">Space</text>
</g>
<g transform="rotate(-30.0, 462.88, 610.9330669589464)">
<rect rx="6.0" ry="6.0" x="436.88" y="570.9330669589464" width="52.0" height="80.0" class="key"/>
<text x="462.88" y="610.9330669589464" class="tap">=</text>
</g>
<g transform="rotate(-15.0, 528.4000000000001, 599.7330669589464)">
<rect rx="6.0" ry="6.0" x="502.4000000000001" y="573.7330669589464" width="52.0" height="52.0" class="key"/>
</g>
<rect rx="6.0" ry="6.0" x="564.0" y="565.5010669589464" width="52.0" height="52.0" class="key"/>
<rect rx="6.0" ry="6.0" x="520.0" y="412.1530669589464" width="28.0" height="26.0" class="combo"/>
<text x="534.0" y="425.1530669589464" class="combo tap">
<tspan x="534.0" dy="-0.6em">Mouse</tspan><tspan x="534.0" dy="1.2em">Left</tspan></text>
<rect rx="6.0" ry="6.0" x="576.0" y="405.1530669589464" width="28.0" height="26.0" class="combo"/>
<text x="590.0" y="418.1530669589464" class="combo tap">
<tspan x="590.0" dy="-0.6em">Mouse</tspan><tspan x="590.0" dy="1.2em">Right</tspan></text>
</g>
<g class="layer-num">
<text x="30.0" y="689.3061339178928" class="label">num:</text>
<rect rx="6.0" ry="6.0" x="32.0" y="740.3061339178928" width="52.0" height="52.0" class="key"/>
<text x="58.0" y="766.3061339178928" class="tap">1</text>
<rect rx="6.0" ry="6.0" x="88.0" y="726.3061339178928" width="52.0" height="52.0" class="key"/>
<text x="114.0" y="752.3061339178928" class="tap">2</text>
<rect rx="6.0" ry="6.0" x="144.0" y="719.3061339178928" width="52.0" height="52.0" class="key"/>
<text x="170.0" y="745.3061339178928" class="tap">3</text>
<rect rx="6.0" ry="6.0" x="200.0" y="726.3061339178928" width="52.0" height="52.0" class="key"/>
<text x="226.0" y="752.3061339178928" class="tap">4</text>
<rect rx="6.0" ry="6.0" x="256.0" y="733.3061339178928" width="52.0" height="52.0" class="key"/>
<text x="282.0" y="759.3061339178928" class="tap">5</text>
<rect rx="6.0" ry="6.0" x="480.0" y="733.3061339178928" width="52.0" height="52.0" class="key"/>
<text x="506.0" y="759.3061339178928" class="tap">6</text>
<rect rx="6.0" ry="6.0" x="536.0" y="726.3061339178928" width="52.0" height="52.0" class="key"/>
<text x="562.0" y="752.3061339178928" class="tap">7</text>
<rect rx="6.0" ry="6.0" x="592.0" y="719.3061339178928" width="52.0" height="52.0" class="key"/>
<text x="618.0" y="745.3061339178928" class="tap">8</text>
<rect rx="6.0" ry="6.0" x="648.0" y="726.3061339178928" width="52.0" height="52.0" class="key"/>
<text x="674.0" y="752.3061339178928" class="tap">9</text>
<rect rx="6.0" ry="6.0" x="704.0" y="740.3061339178928" width="52.0" height="52.0" class="key"/>
<text x="730.0" y="766.3061339178928" class="tap">0</text>
<rect rx="6.0" ry="6.0" x="32.0" y="796.3061339178928" width="52.0" height="52.0" class="key"/>
<text x="58.0" y="822.3061339178928" class="tap">F1</text>
<text x="58.0" y="846.3061339178928" class="hold">LShift</text>
<rect rx="6.0" ry="6.0" x="88.0" y="782.3061339178928" width="52.0" height="52.0" class="key"/>
<text x="114.0" y="808.3061339178928" class="tap">F2</text>
<rect rx="6.0" ry="6.0" x="144.0" y="775.3061339178928" width="52.0" height="52.0" class="key"/>
<text x="170.0" y="801.3061339178928" class="tap">F3</text>
<rect rx="6.0" ry="6.0" x="200.0" y="782.3061339178928" width="52.0" height="52.0" class="key"/>
<text x="226.0" y="808.3061339178928" class="tap">F4</text>
<rect rx="6.0" ry="6.0" x="256.0" y="789.3061339178928" width="52.0" height="52.0" class="key"/>
<text x="282.0" y="815.3061339178928" class="tap">F5</text>
<rect rx="6.0" ry="6.0" x="480.0" y="789.3061339178928" width="52.0" height="52.0" class="key"/>
<text x="506.0" y="815.3061339178928" class="tap">Left</text>
<rect rx="6.0" ry="6.0" x="536.0" y="782.3061339178928" width="52.0" height="52.0" class="key"/>
<text x="562.0" y="808.3061339178928" class="tap">Down</text>
<rect rx="6.0" ry="6.0" x="592.0" y="775.3061339178928" width="52.0" height="52.0" class="key"/>
<text x="618.0" y="801.3061339178928" class="tap">Up</text>
<rect rx="6.0" ry="6.0" x="648.0" y="782.3061339178928" width="52.0" height="52.0" class="key"/>
<text x="674.0" y="808.3061339178928" class="tap">Right</text>
<rect rx="6.0" ry="6.0" x="704.0" y="796.3061339178928" width="52.0" height="52.0" class="key"/>
<text x="730.0" y="822.3061339178928" class="tap">VolUp</text>
<text x="730.0" y="846.3061339178928" class="hold">RShift</text>
<rect rx="6.0" ry="6.0" x="32.0" y="852.3061339178928" width="52.0" height="52.0" class="key"/>
<text x="58.0" y="878.3061339178928" class="tap">F6</text>
<text x="58.0" y="902.3061339178928" class="hold">LCtrl</text>
<rect rx="6.0" ry="6.0" x="88.0" y="838.3061339178928" width="52.0" height="52.0" class="key"/>
<text x="114.0" y="864.3061339178928" class="tap">F7</text>
<rect rx="6.0" ry="6.0" x="144.0" y="831.3061339178928" width="52.0" height="52.0" class="key"/>
<text x="170.0" y="857.3061339178928" class="tap">F8</text>
<rect rx="6.0" ry="6.0" x="200.0" y="838.3061339178928" width="52.0" height="52.0" class="key"/>
<text x="226.0" y="864.3061339178928" class="tap">F9</text>
<rect rx="6.0" ry="6.0" x="256.0" y="845.3061339178928" width="52.0" height="52.0" class="key"/>
<text x="282.0" y="871.3061339178928" class="tap">F10</text>
<rect rx="6.0" ry="6.0" x="480.0" y="845.3061339178928" width="52.0" height="52.0" class="key"/>
<text x="506.0" y="871.3061339178928" class="tap">PgDown</text>
<rect rx="6.0" ry="6.0" x="536.0" y="838.3061339178928" width="52.0" height="52.0" class="key"/>
<text x="562.0" y="864.3061339178928" class="tap" style="font-size: 78%">Ctrl+Down</text>
<rect rx="6.0" ry="6.0" x="592.0" y="831.3061339178928" width="52.0" height="52.0" class="key"/>
<text x="618.0" y="857.3061339178928" class="tap">Ctrl+Up</text>
<rect rx="6.0" ry="6.0" x="648.0" y="838.3061339178928" width="52.0" height="52.0" class="key"/>
<text x="674.0" y="864.3061339178928" class="tap">PgUp</text>
<rect rx="6.0" ry="6.0" x="704.0" y="852.3061339178928" width="52.0" height="52.0" class="key"/>
<text x="730.0" y="878.3061339178928" class="tap">VolDown</text>
<text x="730.0" y="902.3061339178928" class="hold">RCtrl</text>
<rect rx="6.0" ry="6.0" x="172.0" y="896.1541339178928" width="52.0" height="52.0" class="key"/>
<g transform="rotate(15.0, 259.59999999999997, 930.3861339178928)">
<rect rx="6.0" ry="6.0" x="233.59999999999997" y="904.3861339178928" width="52.0" height="52.0" class="key"/>
</g>
<g transform="rotate(30.0, 325.12, 941.5861339178928)">
<rect rx="6.0" ry="6.0" x="299.12" y="901.5861339178928" width="52.0" height="80.0" class="key"/>
<text x="325.12" y="941.5861339178928" class="tap">=</text>
</g>
<g transform="rotate(-30.0, 462.88, 941.5861339178928)">
<rect rx="6.0" ry="6.0" x="436.88" y="901.5861339178928" width="52.0" height="80.0" class="key"/>
</g>
<g transform="rotate(-15.0, 528.4000000000001, 930.3861339178928)">
<rect rx="6.0" ry="6.0" x="502.4000000000001" y="904.3861339178928" width="52.0" height="52.0" class="key"/>
</g>
<rect rx="6.0" ry="6.0" x="564.0" y="896.1541339178928" width="52.0" height="52.0" class="key"/>
<text x="590.0" y="922.1541339178928" class="tap">End</text>
<rect rx="6.0" ry="6.0" x="520.0" y="742.8061339178928" width="28.0" height="26.0" class="combo"/>
<text x="534.0" y="755.8061339178928" class="combo tap">
<tspan x="534.0" dy="-0.6em">Mouse</tspan><tspan x="534.0" dy="1.2em">Left</tspan></text>
<rect rx="6.0" ry="6.0" x="576.0" y="735.8061339178928" width="28.0" height="26.0" class="combo"/>
<text x="590.0" y="748.8061339178928" class="combo tap">
<tspan x="590.0" dy="-0.6em">Mouse</tspan><tspan x="590.0" dy="1.2em">Right</tspan></text>
</g>
</svg>
